<?xml version="1.0" encoding="UTF-8"?>
<svg width="531.14" height="331.97" version="1.1" viewBox="0 0 531.14 331.97" xml:space="preserve" xmlns="http://www.w3.org/2000/svg" xmlns:cc="http://creativecommons.org/ns#" xmlns:dc="http://purl.org/dc/elements/1.1/" xmlns:rdf="http://www.w3.org/1999/02/22-rdf-syntax-ns#"><metadata><rdf:RDF><cc:Work rdf:about=""><dc:format>image/svg+xml</dc:format><dc:type rdf:resource="http://purl.org/dc/dcmitype/StillImage"/></cc:Work></rdf:RDF></metadata><g transform="translate(-78.83 -169.21)"><g transform="matrix(1.3333 0 0 -1.3333 609.97 335.12)"><path d="m0 0c0-68.79-89.207-124.54-199.17-124.54-109.98 0-199.18 55.755-199.18 124.54 0 68.698 89.203 124.44 199.18 124.44 109.97 0 199.17-55.738 199.17-124.44" fill="#fff"/></g><g transform="matrix(1.3333 0 0 -1.3333 602.67 335.12)"><path d="m0 0c0-65.759-86.749-119.1-193.71-119.1-106.97 0-193.69 53.339-193.69 119.1 0 65.692 86.722 119.02 193.69 119.02 106.96 0 193.71-53.323 193.71-119.02" fill="#3ca14e"/></g><g transform="matrix(1.3333 0 0 -1.3333 596.44 335.12)"><path d="m0 0c0-63.101-84.581-114.2-188.87-114.2-104.34 0-188.9 51.096-188.9 114.2 0 63.014 84.566 114.11 188.9 114.11 104.29 0 188.87-51.094 188.87-114.11" fill="#fff"/></g><g transform="matrix(1.3333 0 0 -1.3333 589.88 335.12)"><path d="m0 0c0-60.228-82.355-109.06-183.95-109.06-101.6 0-183.95 48.828-183.95 109.06 0 60.118 82.349 108.9 183.95 108.9 101.59 0 183.95-48.781 183.95-108.9" fill="#3ca14e"/></g><g transform="matrix(1.3333 0 0 -1.3333 232.55 406.1)"><path d="m0 0 240.85-0.042c15.581 15.601 24.485 33.837 24.485 53.296 0 58.527-81.066 106.04-181.09 106.04-92.061 0-168.45-40.264-179.97-92.319-0.272-1.374-0.72-3.442-0.956-5.426-0.274-1.943-0.363-3.857-0.491-5.204-0.18-1.874-0.063-4.144 0.021-6.211 0.042-1.111 0.042-2.879 0.706-6.691 0.652-3.767 1.252-6.078 1.463-6.731 0.022-0.089 0.774-2.616 1.448-4.579 0.425-1.153 1.005-2.395 1.467-3.727 0.497-1.242 1.16-2.658 1.697-3.747 0.909-1.916 1.651-3.157 1.756-3.352 0.069-0.217 2.879-5.164 6.054-9.502 0.847-1.089 2.274-2.919 3.863-4.904 2.767-3.353 5.947-6.948 7.822-8.343 1.567-1.152 2.977-1.895 4.763-2.942 2.563-1.478 2.789-1.478 5.021-2.59 0.559-0.241 3.052-1.374 5.331-2.178 0.463-0.133 2.833-0.985 4.411-1.421 1.459-0.391 3.504-0.848 3.974-0.958 2.543-0.543 4.642-1.021 8.726-1.133 3.596-0.068 8.322-0.24 14.275 0.937 1.993 0.395 4.737 1.027 7.188 1.812 1.964 0.651 4.576 1.588 6.691 2.7 2.015 1.089 2.569 1.262 3.911 2.115 0.847 0.585 1.047 0.632 1.963 1.284 0.51 0.39 1.358 1 2.147 1.568 0.553 0.412 1.705 1.527 2.468 2.243" fill="#fff"/></g><g transform="matrix(1.3333 0 0 -1.3333 246.89 386.98)"><path d="m0 0h5.131c2.768 0 3.236-2.005 3.236-2.896 0-1.198-0.556-2.177-1.598-2.53 0.837-0.347 1.284-0.694 1.284-2.611 0-1.548 0-1.901 0.468-2.073v-0.327h-2.364c-0.111 0.521-0.22 1.069-0.22 2.137 0 1.373-0.064 1.985-1.654 1.985h-2.21v-4.122h-2.073v10.437m4.601-4.53c1.082 0 1.651 0.324 1.651 1.35 0 0.59-0.273 1.397-1.505 1.397h-2.674v-2.747z" fill="#cb3232"/></g><path transform="matrix(1.3333 0 0 -1.3333 3.0681 676.53)" d="m196.6 206.72h-2.136v10.437h2.136z" fill="#cb3232"/><g transform="matrix(1.3333 0 0 -1.3333 272.1 396.54)"><path d="m0 0c0.021-0.59 0.337-1.723 2.167-1.723 1.002 0 2.092 0.286 2.092 1.334 0 0.847-0.713 1.089-1.833 1.304l-1.069 0.284c-1.673 0.39-3.232 0.765-3.232 3.053 0 1.153 0.622 3.242 3.896 3.242 3.127 0 3.979-2.109 3.979-3.399h-2.036c-0.048 0.483-0.238 1.595-2.068 1.595-0.832 0-1.792-0.352-1.792-1.269 0-0.806 0.653-0.979 1.1-1.109l2.496-0.606c1.342-0.353 2.658-0.895 2.658-2.77 0-3.205-3.126-3.462-4.043-3.462-3.705 0-4.326 2.179-4.326 3.526z" fill="#cb3232"/></g><g transform="matrix(1.3333 0 0 -1.3333 290.49 400.9)"><path d="m0 0h-2.128v8.606h-3.047v1.831h8.237v-1.831h-3.062z" fill="#cb3232"/></g><g transform="matrix(1.3333 0 0 -1.3333 304.22 386.55)"><path d="m0 0c1.338 0 4.917-0.61 4.917-5.53 0-4.88-3.579-5.491-4.917-5.491-1.357 0-4.894 0.611-4.894 5.491 0 4.92 3.537 5.53 4.894 5.53m0-9.173c1.139 0 2.769 0.742 2.769 3.643 0 2.962-1.63 3.656-2.769 3.656-1.167 0-2.768-0.694-2.768-3.656 0-2.901 1.601-3.643 2.768-3.643" fill="#cb3232"/></g><g transform="matrix(1.3333 0 0 -1.3333 314.68 386.98)"><path d="m0 0h5.137c2.72 0 3.209-2.005 3.209-2.896 0-1.198-0.557-2.177-1.577-2.53 0.835-0.347 1.263-0.694 1.263-2.611 0-1.548 0-1.901 0.468-2.073v-0.327h-2.343c-0.131 0.521-0.221 1.069-0.221 2.137 0 1.373-0.084 1.985-1.674 1.985h-2.178v-4.122h-2.084v10.437m4.578-4.53c1.091 0 1.601 0.324 1.601 1.35 0 0.59-0.222 1.397-1.448 1.397h-2.647v-2.747z" fill="#cb3232"/></g><g transform="matrix(1.3333 0 0 -1.3333 333.73 400.9)"><path d="m0 0h-2.23l3.615 10.437h2.448l3.578-10.437h-2.301l-0.667 2.178h-3.78l-0.663-2.178m1.254 4.011h2.605l-1.269 4.094h-0.021z" fill="#cb3232"/></g><g transform="matrix(1.3333 0 0 -1.3333 356.21 386.98)"><path d="m0 0h1.963v-10.437h-2.111l-4.111 7.474h-0.068v-7.474h-1.969v10.437h2.231l4.065-7.232z" fill="#cb3232"/></g><g transform="matrix(1.3333 0 0 -1.3333 369.52 400.9)"><path d="m0 0h-2.146v8.606h-3.048v1.831h8.269v-1.831h-3.075z" fill="#cb3232"/></g><g transform="matrix(1.3333 0 0 -1.3333 387.93 389.42)"><path d="m0 0h-5.405v-2.223h4.957v-1.852h-4.957v-2.657h5.651v-1.874h-7.721v10.436h7.475z" fill="#cb3232"/></g><g transform="matrix(1.3333 0 0 -1.3333 412.62 389.42)"><path d="m0 0h-5.427v-2.223h5.001v-1.852h-5.001v-2.657h5.68v-1.874h-7.747v10.436h7.494z" fill="#cb3232"/></g><g transform="matrix(1.3333 0 0 -1.3333 435.16 391.49)"><path d="m0 0c-0.153 0.569-0.47 1.789-2.253 1.789-1 0-2.517-0.694-2.517-3.635 0-1.901 0.684-3.575 2.517-3.575 1.189 0 2 0.695 2.253 1.98h2.146c-0.425-2.306-1.895-3.874-4.441-3.874-2.726 0-4.663 1.874-4.663 5.49 0 3.656 2.067 5.53 4.684 5.53 3.084 0 4.3-2.222 4.42-3.705z" fill="#cb3232"/></g><g transform="matrix(1.3333 0 0 -1.3333 444.59 400.9)"><path d="m0 0h-2.237l3.616 10.437h2.452l3.596-10.437h-2.322l-0.621 2.178h-3.789l-0.695-2.178m1.295 4.011h2.558l-1.22 4.094h-0.044z" fill="#cb3232"/></g><g transform="matrix(1.3333 0 0 -1.3333 461.67 400.9)"><path d="m0 0h-2.146v10.437h7.23v-1.831h-5.084v-2.354h4.484v-1.847h-4.484z" fill="#cb3232"/></g><g transform="matrix(1.3333 0 0 -1.3333 475.84 400.9)"><path d="m0 0h-2.128v10.437h7.232v-1.831h-5.104v-2.354h4.463v-1.847h-4.463z" fill="#cb3232"/></g><g transform="matrix(1.3333 0 0 -1.3333 496.95 389.42)"><path d="m0 0h-5.431v-2.223h4.958v-1.852h-4.958v-2.657h5.648v-1.874h-7.711v10.436h7.494z" fill="#cb3232"/></g><g transform="matrix(1.3333 0 0 -1.3333 489.69 381.69)"><path d="m0 0h1.922l1.321-2.637h-1.412z" fill="#cb3232"/></g><g transform="matrix(1.3333 0 0 -1.3333 221.7 287.1)"><path d="m0 0s-4.643 12.742-5.405 15.011c-1.084 3.006-3.943 2.768-5.949 2.416-2.747-0.39-3.725-3.069-6.383-3.069-2.638 0-4.868 1.415-10.938 1.415-6.626 0-21.278-4.705-21.278-20.653 0-15.952 17.8-18.936 23.959-21.768 4.53-2.137 17.453-6.038 17.453-21.443 0-13.526-14.413-16.996-18.949-16.996-7.042 0-19.327 4.144-19.327 16.844 0 8.653 10.58 9.327 13.074 9.847 2.641 0.7 4.558 2.968 4.558 5.037 0 2.984-2.052 7.321-11.557 7.321-9.481 0-20.591-8.611-20.591-21.769 0-15.841 13.941-30.832 33.843-30.832 19.442 0 33.179 15.863 33.179 30.895 0 18.612-7.452 25.058-21.421 31.18-11.8 5.19-17.558 6.342-17.558 13.165 0 5.621 5.063 7.452 7.722 7.452 5.021 0 8.431-1.528 13.983-9.479 2.042-2.833 5.738-4.248 9.013-2.833 2.441 1.022 3.509 5.423 2.572 8.259" fill="#cb3232"/></g><g transform="matrix(1.3333 0 0 -1.3333 255.04 314.73)"><path d="m0 0c7.722 0 14.563-1.916 14.563-11.048v-17.058s3.791-1.116 3.791-4.559c0-2.462-2.733-3.136-3.564-3.136-0.778 0-4.911-0.042-6.915 0-1.986 0.089-2.639 1.047-2.639 3.011v11.457c0 1.112-0.935 2.27-2.94 2.27-2.7 0-7.811-2.484-7.811-6.106 0-2.394 1.63-2.133 2.768-1.674 1.142 0.39 6.272 0.938 6.272-3.031 0-4.159-2.566-6.864-8.977-6.864-6.854 0-11.306 4.164-11.306 10.875 0 8.695 8.39 11.852 13.01 11.957 3.633 0.158 6.064 0.352 7.064 0.79 1.537 0.632 1.299 1.804 1.299 2.611 0 2.011-0.957 3.184-3.124 3.184-4.618 0-5.602-2.769-7.026-3.552-2.518-1.375-6.692-1.833-8.217 1.089-1.533 3.026 0.804 5.316 4.269 7.015 3.135 1.61 6.219 2.769 9.483 2.769" fill="#cb3232"/></g><g transform="matrix(1.3333 0 0 -1.3333 534.61 314.73)"><path d="m0 0c7.763 0 14.563-1.916 14.563-11.048v-17.058s3.798-1.116 3.798-4.559c0-2.462-2.699-3.136-3.525-3.136-0.806 0-4.958-0.042-6.916 0-2.011 0.089-2.664 1.047-2.664 3.011v11.457c0 1.112-0.958 2.27-2.937 2.27-2.684 0-7.789-2.484-7.789-6.106 0-2.394 1.632-2.133 2.741-1.674 1.123 0.39 6.301 0.938 6.301-3.031 0-4.159-2.595-6.864-9-6.864-6.842 0-11.306 4.164-11.306 10.875 0 8.695 8.412 11.852 13.005 11.957 3.68 0.158 6.071 0.352 7.092 0.79 1.525 0.632 1.272 1.804 1.272 2.611 0 2.011-0.956 3.184-3.125 3.184-4.617 0-5.602-2.769-7.001-3.552-2.541-1.375-6.737-1.833-8.253 1.089-1.521 3.026 0.843 5.316 4.264 7.015 3.168 1.61 6.242 2.769 9.48 2.769" fill="#cb3232"/></g><g transform="matrix(1.3333 0 0 -1.3333 295.56 314.59)"><path d="m0 0c2.213-0.042 3.602-1.084 3.602-3.962v-21.569c0-1.922 1.42-3.095 3.431-3.531 0.914-0.196 2-0.937 2-3.18 0-1.658-1.399-3.554-3.833-3.554-2.942 0-8.705 0.042-11.115-0.042-2.958-0.22-4.747 1.543-4.685 3.616 0.111 2.09 0.938 3.075 2.791 3.88 0.852 0.39 2.147 1.131 2.147 3.505s-0.105 10.479 0 10.984c0.199 1.5-0.38 2.485-2.06 2.485-0.872 0-2.767-0.131-3.162 1.437-0.463 1.873 0.985 3.288 1.901 4.006 0.979 0.768 5.642 6.016 8.983 5.925" fill="#cb3232"/></g><g transform="matrix(1.3333 0 0 -1.3333 292.58 312.93)"><path d="m0 0c3.685 0 6.669 3.273 6.669 7.368 0 4.073-2.984 7.363-6.669 7.363-3.705 0-6.643-3.29-6.643-7.363 0-4.095 2.938-7.368 6.643-7.368" fill="#cb3232"/></g><g transform="matrix(1.3333 0 0 -1.3333 453.41 314.59)"><path d="m0 0c2.212-0.042 3.575-1.084 3.575-3.962v-21.569c0-1.922 1.426-3.095 3.452-3.531 0.895-0.196 2.007-0.937 2.007-3.18 0-1.658-1.454-3.554-3.833-3.554-2.969 0-8.674 0.042-11.073-0.042-3.026-0.22-4.789 1.543-4.727 3.616 0.105 2.09 0.958 3.075 2.768 3.88 0.849 0.39 2.17 1.131 2.17 3.505s-0.091 10.479 0 10.984c0.193 1.5-0.36 2.485-2.042 2.485-0.88 0-2.791-0.131-3.18 1.437-0.421 1.873 0.937 3.288 1.895 4.006 0.957 0.768 5.664 6.016 8.988 5.925" fill="#cb3232"/></g><g transform="matrix(1.3333 0 0 -1.3333 450.39 312.93)"><path d="m0 0c3.7 0 6.685 3.273 6.685 7.368 0 4.073-2.985 7.363-6.685 7.363-3.684 0-6.647-3.29-6.647-7.363 0-4.095 2.963-7.368 6.647-7.368" fill="#cb3232"/></g><g transform="matrix(1.3333 0 0 -1.3333 327.66 315.37)"><path d="m0 0c1.873 0 10.479 0 11.427 0.063 0.958 0.11 3.472-0.416 4.115-2.332 0.658-1.811-0.104-3.726-1.379-5.143-1.242-1.479-11.82-15.884-12.29-16.62-0.447-0.896-1.3-1.901-0.894-2.637 0.405-0.763 5.315-0.416 6.299 0.214 1.175 0.875 5.326 7.454 9.28 4.796 2.321-1.527 0.838-5.773 0-7.105-0.784-1.326-3.726-8.363-6.079-8.3-3.389 0.088-3.789 2.046-5.906 2.046-2.188 0-10.241-0.062-12.273-0.062-1.989 0-4.284 0.653-4.969 1.916-0.984 1.7-0.853 3.968 1.468 6.926 3.237 3.968 10.732 14.468 11.559 15.779 0.794 1.2 1.557 2.353 0.578 2.832-0.642 0.327-2.962 0.215-4.173-0.764-0.825-0.721-4.042-3.657-5.196-3.768-2.342-0.415-5.11 0.848-4.089 3.88 1.19 3.441 2.968 10.261 6.389 10.261 3.896 0 0.574-1.982 6.133-1.982" fill="#cb3232"/></g><g transform="matrix(1.3333 0 0 -1.3333 368.72 342.86)"><path d="m0 0c-0.532 0-1.744 0.11-1.49-2.131 0.279-2.637 2.72-4.101 6.668-4.122 2.742-0.084 5.706 1.506 6.426 2.443 0.744 0.894 1.985 2.137 4.47 1.789 2.494-0.305 3.473-1.984 3.389-4.642-0.047-2.768-4.222-9.084-14.82-9.084-8.518 0-14.217 5.747-15.391 9.82-1.615 5.58-1.706 9.7-0.937 14.385 0.799 4.747 6.4 12.159 16.033 12.159 8.915 0 12.298-4.858 13.795-6.754 1.532-1.851 1.488-6.909 1.488-9.374 0-2.742-3.252-4.399-5.063-4.379-2.606 0.021-14.011-0.11-14.568-0.11m-2.274 7.653c0-1.59 1.536-2.073 2.188-2.073h6.001c1.362 0 4.052 1.005 4.052 3.316 0 4.136-5.431 3.92-5.431 3.92-5.001 0-6.81-3.616-6.81-5.163" fill="#cb3232"/></g><g transform="matrix(1.3333 0 0 -1.3333 427.19 314.62)"><path d="m0 0c-3.042 0-5.042-2.09-6.559-3.853-0.579-0.652-1.126-0.79-1.341-0.459 0 2.833-0.295 4.291-3.106 4.291-3.363 0-8.068-4.643-9.006-5.379-0.984-0.742-2.521-2.005-2.304-3.857 0.2-2.091 1.472-2.311 3.388-2.374 1.812-0.044 2.41-0.284 2.259-2.007 0-0.478 0.042-8.625 0.042-10.983 0-2.417-1.405-3.332-2.211-3.747-1.469-0.696-2.789-1.854-2.879-3.922-0.062-2.047 1.59-3.747 4.578-3.527 2.412 0.084 8.643 0.084 11.58 0.084 2.432 0 3.575 2.07 3.575 3.686 0 2.24-1.143 2.852-2.1 3.005-1.579 0.241-3.284 1.262-3.284 3.179 0 0.657-0.042 8.457-0.042 13.531 0.272 2.227 1.384 2.879 2.277 3.075 1.49 0.347 1.538-1.658 1.964-2.833 0.89-2.394 2.989-3.268 4.637-3.268 2.473 0 4.731 1.284 4.937 6.642 0.173 5.905-3.217 8.716-6.405 8.716" fill="#cb3232"/></g><g transform="matrix(1.3333 0 0 -1.3333 496.95 369.23)"><path d="m0 0h42.992c2.209 0 4.353-1.832 4.353-4.164 0-2.288-2.144-4.142-4.353-4.142h-49.892s3.086 1.311 4.89 3.991c1.648 2.415 2.01 4.315 2.01 4.315" fill="#cb3232"/></g><g transform="matrix(1.3333 0 0 -1.3333 514.74 317.98)"><path d="m0 0c-0.89 1.441-1.426 1.963-3.838 1.963-2.357 0-9.04-0.353-10.977-0.091-1.896 0.306-2.964-0.499-3.475-2.178-0.426-1.305 0.579-3.052 2.295-3.9 2.3-1.217 2.767-1.964 1.801-4.531-0.707-1.916-3.697-9.175-3.697-9.175s-0.541-1.284-1.272-1.284c-0.807 0-1.063 0.284-1.632 1.636-0.537 1.285-3.543 8.411-3.642 8.627-0.084 0.217-0.622 2.29 0.721 3.421 1.362 1.154 3.078 2.854 2.721 5.011-0.401 2.091-1.959 2.464-3.658 2.464-2.301 0-10.215 0-11.733 0.089-1.514 0.084-3.346-1.026-3.705-2.052-1.232-3.443 1.18-4.791 2.538-5.337 1.747-0.716 2.768-1.875 3.595-3.684 0.763-1.807 8.194-19.023 8.899-20.417 0.958-1.895 1.253-4.248-0.488-6.058-2.026-2.133-3.791-2.958-6.196-2.958h-176.25c-1.479 0-2.81-1.047-3.547-2.337-0.495-0.869-10.374-21.653-36.211-21.653-25.659 0-35.559 20.873-36.085 21.875-1.023 2.024-3.453 2.873-5.438 1.831-2.036-1.069-2.636-3.622-1.61-5.691 0.142-0.237 3.235-7.321 10.259-13.705 6.45-5.906 16.758-12.416 32.874-12.416 12.709 0 23.179 4.484 32.864 12.915 5.021 4.317 8.115 8.612 9.61 10.875h176.96s8.047 0.222 11.854 8.585c3.558 7.867 12.484 30.832 12.69 31.422 0.573 1.679 1.826 2.636 2.659 3.268 0.862 0.694 1.956 1.978 1.109 3.485" fill="#cb3232"/></g><g transform="matrix(1.3333 0 0 -1.3333 334.87 217.98)"><path d="m0 0c-3.684-1.006-7.095-3.074-10-5.953-5.105-5.121-8.032-12.506-8.032-20.216h47.19c0 7.71-2.969 15.095-8.057 20.216-2.364 2.352-5.047 4.078-7.88 5.253l0.764 1.352c3.042-1.179 5.826-3.01 8.236-5.496 5.389-5.379 8.496-13.199 8.496-21.325 0-8.217-3.107-16.085-8.496-21.442-1.852-1.875-3.932-3.403-6.189-4.554h-1.705c-4.042 0.195-7.642 1.478-12.632 4.964-5.001 3.556-11.358 3.182-15.022 2.094-4.052 5.163-6.306 11.896-6.306 18.938 0 12.609 7.285 23.331 17.354 27.085 0 0 3.789 1.173 6.363-1.311 0 0 0.441-0.459-0.211-0.132-0.685 0.284-2.426 0.937-3.873 0.527" fill="#3ca14e"/></g><g transform="matrix(1.3333 0 0 -1.3333 337.38 218.82)"><path d="m0 0c-4.109-0.769-7.967-2.88-11.136-6.063-4.768-4.791-7.58-11.612-7.748-18.866h0.654c0.157 7.102 2.9 13.771 7.542 18.435 3.173 3.157 7.027 5.162 11.111 5.904z" fill="#3ca14e"/></g><g transform="matrix(1.3333 0 0 -1.3333 350.68 220.63)"><path d="m0 0c2.916-1.021 5.684-2.783 8.026-5.136 4.71-4.664 7.406-11.333 7.585-18.46h0.653c-0.174 7.28-2.994 14.1-7.768 18.891-2.321 2.337-4.948 4.053-7.812 5.1z" fill="#3ca14e"/></g><g transform="matrix(1.3333 0 0 -1.3333 342.25 232.07)"><path d="m0 0c0.828 0 1.491 0.653 1.491 1.48 0 0.784-0.663 1.437-1.491 1.437-0.804 0-1.467-0.653-1.467-1.437 0-0.827 0.663-1.48 1.467-1.48" fill="#3ca14e"/></g><g transform="matrix(1.3333 0 0 -1.3333 342.25 224.14)"><path d="m0 0c0.828 0 1.491 0.694 1.491 1.485 0 0.821-0.663 1.499-1.491 1.499-0.804 0-1.467-0.678-1.467-1.499 0-0.791 0.663-1.485 1.467-1.485" fill="#3ca14e"/></g><g transform="matrix(1.3333 0 0 -1.3333 337.9 224.14)"><path d="m0 0c0.831 0 1.473 0.694 1.473 1.485 0 0.821-0.642 1.499-1.473 1.499-0.785 0-1.428-0.678-1.428-1.499 0-0.791 0.643-1.485 1.428-1.485" fill="#3ca14e"/></g><g transform="matrix(1.3333 0 0 -1.3333 346.63 224.14)"><path d="m0 0c-0.825 0-1.493 0.694-1.493 1.485 0 0.821 0.668 1.499 1.493 1.499 0.812 0 1.454-0.678 1.454-1.499 0-0.791-0.642-1.485-1.454-1.485" fill="#3ca14e"/></g><g transform="matrix(1.3333 0 0 -1.3333 340.12 228.07)"><path d="m0 0c0.805 0 1.468 0.632 1.468 1.437 0 0.832-0.663 1.485-1.468 1.485-0.785 0-1.448-0.653-1.448-1.485 0-0.805 0.663-1.437 1.448-1.437" fill="#3ca14e"/></g><g transform="matrix(1.3333 0 0 -1.3333 344.46 228.07)"><path d="m0 0c-0.83 0-1.473 0.632-1.473 1.437 0 0.832 0.643 1.485 1.473 1.485 0.807 0 1.47-0.653 1.47-1.485 0-0.805-0.663-1.437-1.47-1.437" fill="#3ca14e"/></g><g transform="matrix(1.3333 0 0 -1.3333 326.75 252.87)"><path d="m0 0s-1.357 2.109-1.357 6.011c0 3.878 3.104 7.431 3.104 7.431h7.306s-3.091-3.553-3.091-7.431c0-3.902 1.363-6.011 1.363-6.011z" fill="#3ca14e"/></g><g transform="matrix(1.3333 0 0 -1.3333 337.87 252.87)"><path d="m0 0s-1.337 2.109-1.337 6.011c0 3.878 3.126 7.431 3.126 7.431h7.296s-3.086-3.553-3.086-7.431c0-3.902 1.321-6.011 1.321-6.011z" fill="#3ca14e"/></g><g transform="matrix(1.3333 0 0 -1.3333 349.07 252.87)"><path d="m0 0s-1.384 2.109-1.384 6.011c0 3.878 3.105 7.431 3.105 7.431h7.311s-3.096-3.553-3.096-7.431c0-3.902 1.358-6.011 1.358-6.011z" fill="#3ca14e"/></g><g transform="matrix(1.3333 0 0 -1.3333 305.62 255.9)"><path d="m0 0s1.874 3.789 0.021 6.469c-1.873 2.725-3.364 4.49-3.364 5.905 0 1.374 0.484 1.638 0.98 1.638 0.579 0 1.315-0.374 1.399-2.228 0.027-1.825 0.07-2.483 0.343-2.783 0.174-0.264 0.37-0.437 0.532 0 0.021 0.084 0.358 3.026 0.131 4.115-0.316 1.481-0.847 2.721-3.026 2.721-2.084 0-3.554-1.736-3.554-3.963 0-2.11 0.597-3.7 2.475-5.99 1.937-2.395 3.747-4.335 3.747-5.842 0 0 0.065-0.415 0.316-0.042" fill="#3ca14e"/></g><g transform="matrix(1.3333 0 0 -1.3333 297.37 251.05)"><path d="m0 0s0.467-3.875 2.237-5.073c3.747-2.528 6.599-3.117 6.367-9.176 0 0-0.147-1.005-0.389-0.131-0.695 2.157-0.894 2.115-3.236 3.199-3.196 1.423-4.553 1.332-5.384 5.781-0.685 4.01-0.464 4.504-0.149 5.4 0.169 0.457 0.463 0.109 0.554 0" fill="#3ca14e"/></g><g transform="matrix(1.3333 0 0 -1.3333 299.84 270.77)"><path d="m0 0s1.34-5.037 3.319-6.604c1.495-1.196 2.149-0.701 4.663-1.027 1.721-0.217 3.442-0.827 4.643-1.979 0 0 1.295-0.742 0.741 0.327-0.803 1.483-2.637 2.984-4.357 4.246-2.115 1.658-3.964 0.827-5.285 1.785-1.342 1.026-2.3 2.621-3.027 3.379-0.747 0.81-0.697 0.368-0.697-0.127" fill="#3ca14e"/></g><g transform="matrix(1.3333 0 0 -1.3333 306.51 285.48)"><path d="m0 0s1.111-1.128 2.679-1.128c1.558 0 7.454 0.454 8.768 0.063 1.29-0.347 3.075-1.961 3.59-2.378 0.443-0.453 0.716-0.869-0.326-0.563-2.084 0.563-5.601-0.237-8.348-0.459-2.747-0.262-4.173 0.39-6.515 3.528 0 0-0.762 1.219 0.152 0.937" fill="#3ca14e"/></g><g transform="matrix(1.3333 0 0 -1.3333 320.83 294.51)"><path d="m0 0s1.295-0.562 2.832-0.479c1.558 0 6.274 1.286 8.26 1.327 1.83 0 1.404-0.105 3.572-2.021 1.18-1.068 0.042-2.115-2.126-2.18-2.148 0-2 0.285-2 0.285s-0.211 0.237 0.215 0.41c0.827 0.221 2.19-0.39 2.79 0.086 0.405 0.331 0 0.441-0.752 0.504-1.59 0.106-4.381-1.548-7.211-1.285-1.853 0.196-4.4 0.411-6.095 2.721 0 0-0.757 1.153 0.515 0.632" fill="#3ca14e"/></g><g transform="matrix(1.3333 0 0 -1.3333 378.94 255.9)"><path d="m0 0s-1.916 3.789-0.069 6.469c1.9 2.725 3.389 4.49 3.389 5.905 0 1.374-0.509 1.638-0.983 1.638-0.574 0-1.336-0.374-1.38-2.228-0.089-1.825-0.11-2.483-0.337-2.783-0.199-0.264-0.426-0.437-0.578 0 0 0.084-0.337 3.026-0.111 4.115 0.326 1.481 0.847 2.721 3.005 2.721 2.106 0 3.58-1.736 3.58-3.963 0-2.11-0.579-3.7-2.474-5.99-1.932-2.395-3.785-4.335-3.785-5.842 0 0-0.063-0.415-0.257-0.042" fill="#3ca14e"/></g><g transform="matrix(1.3333 0 0 -1.3333 387.15 251.05)"><path d="m0 0s-0.426-3.875-2.232-5.073c-3.747-2.528-6.583-3.117-6.406-9.176 0 0 0.164-1.005 0.421-0.131 0.701 2.157 0.896 2.115 3.196 3.199 3.237 1.423 4.616 1.332 5.447 5.781 0.705 4.01 0.448 4.504 0.153 5.4-0.195 0.457-0.511 0.109-0.579 0" fill="#3ca14e"/></g><g transform="matrix(1.3333 0 0 -1.3333 384.68 270.77)"><path d="m0 0s-1.314-5.037-3.342-6.604c-1.473-1.196-2.126-0.701-4.662-1.027-1.701-0.217-3.401-0.827-4.6-1.979 0 0-1.316-0.742-0.759 0.327 0.8 1.483 2.632 2.984 4.38 4.246 2.068 1.658 3.92 0.827 5.262 1.785 1.337 1.026 2.295 2.621 3.027 3.379 0.763 0.81 0.694 0.368 0.694-0.127" fill="#3ca14e"/></g><g transform="matrix(1.3333 0 0 -1.3333 378.07 285.48)"><path d="m0 0s-1.19-1.128-2.726-1.128c-1.517 0-7.433 0.454-8.75 0.063-1.315-0.347-3.093-1.961-3.583-2.378-0.479-0.453-0.743-0.869 0.328-0.563 2.036 0.563 5.619-0.237 8.319-0.459 2.769-0.262 4.195 0.39 6.474 3.528 0 0 0.785 1.219-0.062 0.937" fill="#3ca14e"/></g><g transform="matrix(1.3333 0 0 -1.3333 363.66 294.51)"><path d="m0 0s-1.272-0.562-2.852-0.479c-1.516 0-6.201 1.286-8.216 1.327-1.805 0-1.406-0.105-3.541-2.021-1.233-1.068-0.076-2.115 2.073-2.18 2.168 0 2.02 0.285 2.02 0.285s0.233 0.237-0.236 0.41c-0.805 0.221-2.142-0.39-2.789 0.086-0.379 0.331 0 0.441 0.783 0.504 1.601 0.106 4.368-1.548 7.18-1.285 1.852 0.196 4.427 0.411 6.116 2.721 0 0 0.757 1.153-0.538 0.632" fill="#3ca14e"/></g><g transform="matrix(1.3333 0 0 -1.3333 364.31 220.89)"><path d="m0 0 5.131 11.111c-1.426 1.049-3.685-0.635-6.09 0.5-2.637 1.264-1.164 3.664-4.084 4.685-2.657 0.916-2.811-1.896-5.895-1.264-3.094 0.654-2.536 3.181-5.601 3.181-3.025 0-2.493-2.527-5.599-3.181-3.069-0.632-3.258 2.18-5.88 1.264-2.937-1.021-1.483-3.421-4.062-4.685-2.41-1.135-4.643 0.549-6.137-0.5l5.173-11.111c4.574 4.053 10.265 6.491 16.505 6.491 6.254 0 11.965-2.438 16.539-6.491" fill="#3ca14e"/></g><g transform="matrix(1.3333 0 0 -1.3333 335.09 215.51)"><path d="m0 0s1.658 0.064 3.127-0.747c1.452-0.847 4.199-2.742 6.625-2.483 2.407 0.157 3.217 1.399 3.217 2.53 0 1.133-1.364 1.679-2.342 1.679-1.026 0-1.784-0.462-2.126-0.831-0.348-0.285-0.175-0.347 0.342-0.084 0.505 0.262 1.468 0.369 1.873 0.369 0.423 0 1.558-0.412 1.558-1.133 0-0.763-0.689-1.852-2.522-1.852-1.805 0-4.105 2.027-5.752 2.573-1.652 0.563-2.82 0.694-4.105 0.19 0 0-0.447-0.326 0.105-0.211" fill="#3ca14e"/></g><g transform="matrix(1.3333 0 0 -1.3333 338.33 214.44)"><path d="m0 0s1.915-0.062 3.126-0.89c2.585-1.721 4.011-2.311 5.178-1.436 0 0 0.574 0.519-0.231 0.284-0.816-0.222-1.427-0.222-2.362 0.563-0.896 0.785-2.7 2.416-5.622 1.743 0 0-0.69-0.35-0.089-0.264" fill="#3ca14e"/></g><g transform="matrix(1.3333 0 0 -1.3333 336.52 252.87)"><path d="m0 0s1.337-2.18 1.337-6.086c0-3.873-3.084-7.427-3.084-7.427h-7.343s3.128 3.554 3.128 7.427c0 3.906-1.363 6.086-1.363 6.086z" fill="#fff"/></g><g transform="matrix(1.3333 0 0 -1.3333 347.62 252.87)"><path d="m0 0s1.386-2.18 1.386-6.086c0-3.873-3.107-7.427-3.107-7.427h-7.321s3.127 3.554 3.127 7.427c0 3.906-1.404 6.086-1.404 6.086z" fill="#fff"/></g><g transform="matrix(1.3333 0 0 -1.3333 358.79 252.87)"><path d="m0 0s1.347-2.18 1.347-6.086c0-3.873-3.105-7.427-3.105-7.427h-7.295s3.096 3.554 3.096 7.427c0 3.906-1.337 6.086-1.337 6.086z" fill="#fff"/></g></g></svg>
